<?xml version="1.0" encoding="utf-8"?>
<!-- Generator: Adobe Illustrator 23.0.3, SVG Export Plug-In . SVG Version: 6.00 Build 0)  -->
<svg version="1.1" xmlns="http://www.w3.org/2000/svg" xmlns:xlink="http://www.w3.org/1999/xlink" x="0px" y="0px"
	 viewBox="0 0 284 40" style="enable-background:new 0 0 284 40;" xml:space="preserve">
<style type="text/css">
	.st0{fill:#FFFFFF;}
</style>
<g id="Calque_1">
</g>
<g id="Calque_2">
	<path class="st0" d="M14.1,31.2c-3.3,0-5.9-1-7.8-2.8c-1.9-1.9-2.8-4.5-2.8-7.8V0.3h1.8v13.6C6,12.9,6.9,12,8,11.4
		c1.6-1,3.7-1.5,6-1.5c3.3,0,6,1,7.8,2.8c1.9,1.9,2.8,4.5,2.8,7.8c0,3.3-0.9,5.9-2.8,7.8C20,30.2,17.4,31.2,14.1,31.2z M14.1,11.7
		c-2.8,0-5,0.8-6.5,2.3c-1.5,1.5-2.3,3.7-2.3,6.5c0,2.8,0.8,5,2.3,6.5c1.5,1.5,3.7,2.3,6.5,2.3c2.8,0,5-0.8,6.5-2.3
		c1.5-1.5,2.3-3.7,2.3-6.5c0-2.8-0.8-5-2.3-6.5C19.1,12.5,16.9,11.7,14.1,11.7z"/>
	<path class="st0" d="M38.2,31.2c-3.3,0-6-0.9-7.8-2.8s-2.8-4.5-2.8-7.8c0-3.3,0.9-5.9,2.8-7.8c1.9-1.9,4.5-2.8,7.8-2.8
		c3.3,0,6,1,7.8,2.8c1.9,1.9,2.8,4.5,2.8,7.8c0,3.3-0.9,6-2.8,7.8C44.2,30.2,41.6,31.2,38.2,31.2z M38.2,11.7c-2.8,0-5,0.8-6.5,2.3
		c-1.5,1.5-2.3,3.7-2.3,6.5c0,2.8,0.8,5,2.3,6.5c1.5,1.5,3.7,2.3,6.5,2.3s5-0.8,6.5-2.3c1.5-1.5,2.3-3.7,2.3-6.5
		c0-2.8-0.8-5-2.3-6.5C43.2,12.5,41,11.7,38.2,11.7z"/>
	<path class="st0" d="M62.4,31.2c-3.3,0-5.9-1-7.8-2.8c-1.9-1.9-2.8-4.5-2.8-7.8c0-3.3,0.9-5.9,2.8-7.8c1.9-1.9,4.5-2.8,7.8-2.8
		c2.4,0,4.4,0.5,6.1,1.5c1.1,0.7,2,1.5,2.7,2.5V0.3h1.8v20.2c0,3.3-0.9,5.9-2.8,7.8C68.4,30.2,65.8,31.2,62.4,31.2z M62.4,11.7
		c-2.8,0-5,0.8-6.5,2.3c-1.5,1.5-2.3,3.7-2.3,6.5c0,2.8,0.7,5,2.3,6.5c1.5,1.5,3.7,2.3,6.5,2.3c2.8,0,5-0.8,6.5-2.3
		c1.5-1.5,2.3-3.7,2.3-6.5c0-2.8-0.8-5-2.3-6.5C67.4,12.5,65.2,11.7,62.4,11.7z"/>
	<polygon class="st0" points="82.2,39.9 80.2,39.9 84.3,30.2 75.8,10.2 77.8,10.2 85.4,27.9 93,10.2 95,10.2 	"/>
	<path class="st0" d="M116.5,31.1c-2.5,0-4.4-0.2-5.8-0.7c-1.4-0.5-2.6-1-3.4-1.7c-0.8-0.7-1.3-1.4-1.6-2.2
		c-0.2-0.7-0.3-1.3-0.3-1.8c0-1.7,0.3-3,0.8-3.9c0.5-1,1.2-1.7,2.2-2.2c0.9-0.5,1.9-0.8,3.1-0.9c1.1-0.1,2.3-0.2,3.7-0.2h8.4
		c-0.4-1.4-1.1-2.6-2.1-3.3c-1.2-0.9-2.8-1.4-4.9-1.4c-2.1,0-3.8,0.5-5.1,1.5l-0.4,0.3l-2.3-2.9l0.4-0.3c1.9-1.5,4.4-2.3,7.3-2.3
		c3.5,0,6.2,1,8.1,2.9c1.9,2,2.9,4.7,2.9,8.1v4.6c0,0.5-0.1,1.1-0.3,1.8c-0.2,0.8-0.8,1.5-1.6,2.2c-0.8,0.7-1.9,1.2-3.4,1.7
		C120.9,30.9,119,31.1,116.5,31.1z M116.5,21.1c-1.7,0-3.1,0-4.1,0.1c-1,0.1-1.7,0.3-2.2,0.5c-0.4,0.2-0.7,0.5-0.8,0.9
		c-0.2,0.5-0.2,1.2-0.2,2c0,0.4,0.2,0.8,0.5,1.1c0.4,0.4,1,0.7,1.6,0.9c0.7,0.2,1.5,0.4,2.4,0.5c1.7,0.2,3.6,0.2,5.6,0
		c0.9-0.1,1.7-0.3,2.4-0.5c0.7-0.2,1.2-0.5,1.6-0.9c0.4-0.3,0.5-0.7,0.5-1.1v-3.6H116.5z"/>
	<path class="st0" d="M161.6,31.1c-2.5,0-4.4-0.2-5.8-0.7c-1.4-0.5-2.6-1-3.4-1.7c-0.8-0.7-1.3-1.4-1.6-2.2
		c-0.2-0.7-0.3-1.3-0.3-1.8c0-1.7,0.3-3,0.8-3.9c0.5-1,1.2-1.7,2.2-2.2c0.9-0.5,1.9-0.8,3.1-0.9c1.1-0.1,2.3-0.2,3.7-0.2h8.4
		c-0.4-1.4-1.1-2.6-2.1-3.3c-1.2-0.9-2.8-1.4-4.9-1.4c-2.1,0-3.8,0.5-5.1,1.5l-0.4,0.3l-2.3-2.9l0.4-0.3c1.9-1.5,4.4-2.3,7.3-2.3
		c3.5,0,6.2,1,8.1,2.9c1.9,2,2.9,4.7,2.9,8.1v4.6c0,0.5-0.1,1.1-0.3,1.8c-0.2,0.8-0.8,1.5-1.6,2.2c-0.8,0.7-1.9,1.2-3.4,1.7
		C166,30.9,164.1,31.1,161.6,31.1z M161.6,21.1c-1.7,0-3.1,0-4.1,0.1c-1,0.1-1.7,0.3-2.2,0.5c-0.4,0.2-0.7,0.5-0.8,0.9
		c-0.2,0.5-0.2,1.2-0.2,2c0,0.4,0.2,0.8,0.5,1.1c0.4,0.4,1,0.7,1.6,0.9c0.7,0.2,1.5,0.4,2.4,0.5c1.7,0.2,3.6,0.2,5.6,0
		c0.9-0.1,1.7-0.3,2.4-0.5c0.7-0.2,1.2-0.5,1.6-0.9c0.4-0.3,0.5-0.7,0.5-1.1v-3.6H161.6z"/>
	<path class="st0" d="M141,31.1c-3.5,0-6.2-1-8.1-2.9c-1.9-1.9-2.9-4.7-2.9-8.1c0-3.4,1-6.2,2.9-8.1c1.9-2,4.7-2.9,8.1-2.9
		c2.9,0,5.3,0.7,7.1,2.1l0.4,0.3l-2.2,3l-0.4-0.3c-1.2-0.9-2.9-1.4-4.9-1.4c-2.4,0-4.3,0.6-5.5,1.9c-1.2,1.2-1.9,3.1-1.9,5.5
		c0,2.4,0.6,4.3,1.9,5.5c1.2,1.2,3.1,1.9,5.5,1.9c2.3,0,4.2-0.6,5.4-1.8l0.4-0.3l2.6,2.7l-0.4,0.3c-1,1-2.2,1.7-3.5,2.1
		C144.2,30.9,142.6,31.1,141,31.1z"/>
	<path class="st0" d="M186.2,31.1c-3.5,0-6.2-1-8.1-2.9c-1.9-1.9-2.9-4.7-2.9-8.1c0-3.5,1-6.2,2.9-8.1C180,10,182.7,9,186.2,9
		c1.8,0,3.3,0.3,4.7,0.8c1,0.4,1.9,0.9,2.7,1.5v-11h3.7v19.8c0,3.4-1,6.2-2.9,8.1S189.6,31.1,186.2,31.1z M186.2,12.7
		c-2.4,0-4.3,0.6-5.5,1.9c-1.2,1.2-1.9,3.1-1.9,5.5c0,2.4,0.6,4.2,1.9,5.5c1.2,1.2,3.1,1.9,5.5,1.9c2.4,0,4.2-0.6,5.5-1.9
		c1.3-1.3,1.9-3.1,1.9-5.5c0-2.4-0.6-4.3-1.9-5.5C190.4,13.3,188.6,12.7,186.2,12.7z"/>
	<path class="st0" d="M211.2,31.1c-3.4,0-6.2-1-8.1-2.9s-2.9-4.7-2.9-8.1c0-3.5,1-6.2,2.9-8.2c1.9-2,4.7-3,8.2-3
		c3.5,0,6.2,1,8.1,2.9c1.9,2,2.9,4.7,2.9,8.1c0,0.6-0.2,1-0.6,1.4c-0.4,0.4-0.8,0.5-1.3,0.5h-16.4c0.3,1.7,1,3,2.1,3.9
		c1.2,1,2.9,1.5,5.1,1.5c2.4,0,4.2-0.6,5.4-1.8l0.4-0.3l2.6,2.6l-0.4,0.3C217.2,30.2,214.6,31.1,211.2,31.1z M204,18.2h14.5
		c-0.3-1.7-1-3-2.1-4c-1.2-1-3-1.6-5.2-1.6c-2.2,0-3.9,0.5-5.2,1.6C205,15.2,204.3,16.5,204,18.2z"/>
	<path class="st0" d="M256.9,30.9h-3.7V20.1c0-0.7-0.1-1.5-0.2-2.4c-0.1-0.9-0.4-1.7-0.7-2.4c-0.4-0.8-0.9-1.4-1.5-1.8
		c-0.7-0.5-1.5-0.7-2.6-0.7c-1.1,0-2,0.2-2.6,0.7c-0.7,0.5-1.2,1.1-1.5,1.9c-0.4,0.7-0.6,1.6-0.7,2.4c-0.1,0.9-0.2,1.7-0.2,2.4v10.8
		h-3.7V20.1c0-0.7-0.1-1.5-0.2-2.4c-0.1-0.8-0.4-1.7-0.7-2.4c-0.4-0.7-0.9-1.4-1.5-1.8c-0.6-0.5-1.5-0.7-2.6-0.7s-2,0.2-2.6,0.7
		c-0.7,0.5-1.2,1.1-1.5,1.9c-0.4,0.8-0.6,1.6-0.7,2.4c-0.1,0.9-0.2,1.7-0.2,2.4v10.8h-3.7V20.1c0-3.4,0.8-6.1,2.3-8.1
		c1.5-2,3.7-3,6.5-3c1.7,0,3.2,0.4,4.4,1.1c1,0.6,1.8,1.4,2.5,2.5c0.7-1,1.5-1.9,2.5-2.5c1.2-0.8,2.7-1.1,4.4-1.1c2.7,0,4.9,1,6.5,3
		c1.5,1.9,2.3,4.7,2.3,8.1V30.9z"/>
	<polygon class="st0" points="267.7,39.4 263.7,39.4 268.1,29.5 259.2,9.4 263.2,9.4 270.1,24.9 277,9.4 281,9.4 	"/>
</g>
</svg>
