<?xml version="1.0" encoding="utf-8"?>
<!-- Generator: Adobe Illustrator 23.0.3, SVG Export Plug-In . SVG Version: 6.00 Build 0)  -->
<svg version="1.1" id="Calque_1" xmlns="http://www.w3.org/2000/svg" xmlns:xlink="http://www.w3.org/1999/xlink" x="0px" y="0px"
	 viewBox="0 0 284 40" style="enable-background:new 0 0 284 40;" xml:space="preserve">
<style type="text/css">
	.st0{fill:#FFFFFF;}
</style>
<g>
	<path class="st0" d="M14.06,10.39c3.21,0,5.71,0.89,7.48,2.68c1.77,1.79,2.66,4.28,2.66,7.46c0,3.19-0.89,5.68-2.66,7.46
		c-1.77,1.79-4.27,2.68-7.48,2.68c-3.19,0-5.67-0.89-7.45-2.68c-1.78-1.79-2.66-4.28-2.66-7.46V0.83H4.8v15.04
		c0.75-1.75,1.9-3.1,3.47-4.05C9.84,10.87,11.77,10.39,14.06,10.39z M14.06,29.8c2.96,0,5.25-0.8,6.87-2.41
		c1.62-1.61,2.43-3.89,2.43-6.85c0-2.96-0.81-5.25-2.43-6.87c-1.62-1.62-3.91-2.43-6.87-2.43c-2.96,0-5.24,0.81-6.85,2.43
		C5.6,15.29,4.8,17.58,4.8,20.54c0,2.96,0.8,5.24,2.41,6.85C8.81,29,11.1,29.8,14.06,29.8z"/>
	<path class="st0" d="M38.24,30.69c-3.22,0-5.71-0.89-7.48-2.66c-1.77-1.77-2.66-4.27-2.66-7.48c0-3.19,0.89-5.68,2.66-7.46
		c1.77-1.79,4.27-2.68,7.48-2.68c3.21,0,5.71,0.89,7.48,2.68c1.78,1.79,2.66,4.28,2.66,7.46c0,3.22-0.89,5.71-2.66,7.48
		C43.94,29.8,41.45,30.69,38.24,30.69z M38.24,11.24c-2.96,0-5.25,0.81-6.87,2.43c-1.62,1.62-2.43,3.91-2.43,6.87
		c0,2.96,0.81,5.25,2.43,6.87c1.62,1.62,3.91,2.43,6.87,2.43c2.96,0,5.25-0.81,6.87-2.43c1.62-1.62,2.43-3.91,2.43-6.87
		c0-2.96-0.81-5.25-2.43-6.87C43.48,12.05,41.19,11.24,38.24,11.24z"/>
	<path class="st0" d="M52.31,20.54c0-3.19,0.89-5.68,2.66-7.46c1.77-1.79,4.26-2.68,7.45-2.68c2.31,0,4.26,0.48,5.83,1.43
		c1.57,0.95,2.73,2.3,3.47,4.05V0.83h0.85v19.71c0,3.19-0.89,5.68-2.66,7.46c-1.77,1.79-4.27,2.68-7.48,2.68
		c-3.19,0-5.67-0.89-7.45-2.68C53.2,26.22,52.31,23.73,52.31,20.54z M53.16,20.54c0,2.96,0.8,5.24,2.41,6.85
		c1.61,1.61,3.89,2.41,6.85,2.41c2.96,0,5.25-0.8,6.87-2.41c1.62-1.61,2.43-3.89,2.43-6.85c0-2.96-0.81-5.25-2.43-6.87
		c-1.62-1.62-3.91-2.43-6.87-2.43c-2.96,0-5.24,0.81-6.85,2.43C53.96,15.29,53.16,17.58,53.16,20.54z"/>
	<path class="st0" d="M94.22,10.66v0.04L81.87,39.4h-0.93l3.93-9.22L76.51,10.7v-0.04h0.93v0.04l7.91,18.48l7.95-18.48v-0.04H94.22z
		"/>
	<path class="st0" d="M116.5,9.47c3.34,0,5.94,0.93,7.79,2.8c1.85,1.86,2.78,4.46,2.78,7.77v4.63c0,0.44-0.1,1-0.31,1.68
		c-0.21,0.68-0.68,1.34-1.41,1.97c-0.73,0.63-1.79,1.17-3.18,1.62c-1.39,0.45-3.28,0.67-5.67,0.67c-2.39,0-4.28-0.22-5.67-0.67
		c-1.39-0.45-2.45-0.99-3.18-1.62c-0.73-0.63-1.2-1.29-1.41-1.97c-0.21-0.68-0.31-1.24-0.31-1.68c0-1.57,0.24-2.8,0.73-3.7
		c0.49-0.9,1.14-1.57,1.97-2.03c0.82-0.45,1.79-0.74,2.91-0.87c1.12-0.13,2.32-0.19,3.61-0.19h9.03c-0.36-1.85-1.18-3.27-2.47-4.24
		c-1.29-0.98-3.02-1.47-5.21-1.47c-2.21,0-4,0.53-5.36,1.58l-1.66-2.12C111.3,10.19,113.64,9.47,116.5,9.47z M124.37,20.58h-7.87
		c-1.72,0-3.11,0.05-4.15,0.14s-1.84,0.28-2.39,0.56c-0.55,0.28-0.91,0.69-1.08,1.23c-0.17,0.54-0.25,1.26-0.25,2.16
		c0,0.59,0.23,1.09,0.69,1.5c0.46,0.41,1.07,0.75,1.81,1c0.75,0.26,1.59,0.44,2.53,0.56c0.94,0.12,1.88,0.17,2.84,0.17
		c0.95,0,1.9-0.06,2.84-0.17c0.94-0.12,1.78-0.3,2.53-0.56c0.75-0.26,1.35-0.59,1.81-1c0.46-0.41,0.69-0.91,0.69-1.5V20.58z"/>
	<path class="st0" d="M148.67,27.91c-0.93,0.9-2.04,1.58-3.34,2.03c-1.3,0.45-2.75,0.67-4.34,0.67c-3.34,0-5.94-0.93-7.79-2.78
		c-1.85-1.85-2.78-4.45-2.78-7.79c0-3.32,0.93-5.91,2.78-7.77c1.85-1.86,4.45-2.8,7.79-2.8c2.75,0,5.03,0.68,6.83,2.04l-1.62,2.16
		c-1.31-1-3.05-1.5-5.21-1.5c-2.57,0-4.53,0.67-5.86,2.03c-1.34,1.35-2.01,3.3-2.01,5.84c0,2.57,0.67,4.53,2.01,5.86
		c1.34,1.34,3.29,2.01,5.86,2.01c2.49,0,4.42-0.66,5.79-1.97L148.67,27.91z"/>
	<path class="st0" d="M161.59,9.47c3.34,0,5.94,0.93,7.79,2.8c1.85,1.86,2.78,4.46,2.78,7.77v4.63c0,0.44-0.1,1-0.31,1.68
		c-0.21,0.68-0.68,1.34-1.41,1.97c-0.73,0.63-1.79,1.17-3.18,1.62c-1.39,0.45-3.28,0.67-5.67,0.67s-4.28-0.22-5.67-0.67
		c-1.39-0.45-2.45-0.99-3.18-1.62c-0.73-0.63-1.2-1.29-1.41-1.97c-0.21-0.68-0.31-1.24-0.31-1.68c0-1.57,0.24-2.8,0.73-3.7
		c0.49-0.9,1.14-1.57,1.97-2.03c0.82-0.45,1.79-0.74,2.91-0.87c1.12-0.13,2.32-0.19,3.61-0.19h9.03c-0.36-1.85-1.18-3.27-2.47-4.24
		c-1.29-0.98-3.02-1.47-5.21-1.47c-2.21,0-4,0.53-5.36,1.58l-1.66-2.12C156.4,10.19,158.74,9.47,161.59,9.47z M169.46,20.58h-7.87
		c-1.72,0-3.11,0.05-4.15,0.14c-1.04,0.09-1.84,0.28-2.39,0.56c-0.55,0.28-0.91,0.69-1.08,1.23c-0.17,0.54-0.25,1.26-0.25,2.16
		c0,0.59,0.23,1.09,0.69,1.5c0.46,0.41,1.07,0.75,1.81,1c0.75,0.26,1.59,0.44,2.53,0.56c0.94,0.12,1.88,0.17,2.84,0.17
		c0.95,0,1.9-0.06,2.84-0.17c0.94-0.12,1.78-0.3,2.53-0.56c0.75-0.26,1.35-0.59,1.81-1c0.46-0.41,0.69-0.91,0.69-1.5V20.58z"/>
	<path class="st0" d="M175.59,20.08c0-3.34,0.93-5.94,2.78-7.79c1.85-1.85,4.45-2.78,7.79-2.78c1.7,0,3.21,0.25,4.53,0.75
		c1.32,0.5,2.44,1.21,3.34,2.14v-12h2.66v19.67c0,3.32-0.93,5.9-2.78,7.75c-1.85,1.85-4.44,2.78-7.75,2.78
		c-3.34,0-5.94-0.93-7.79-2.78C176.52,25.98,175.59,23.39,175.59,20.08z M178.29,20.08c0,2.55,0.67,4.49,2.01,5.84
		c1.34,1.35,3.29,2.03,5.86,2.03c2.55,0,4.49-0.68,5.84-2.03c1.35-1.35,2.03-3.3,2.03-5.84c0-2.57-0.68-4.53-2.03-5.86
		c-1.35-1.34-3.3-2.01-5.84-2.01c-2.57,0-4.53,0.67-5.86,2.01C178.96,15.55,178.29,17.51,178.29,20.08z"/>
	<path class="st0" d="M211.28,9.47c3.34,0,5.94,0.93,7.79,2.8c1.85,1.86,2.78,4.46,2.78,7.77v0.04c0,0.39-0.14,0.71-0.41,0.97
		c-0.27,0.26-0.58,0.39-0.95,0.39h-17.01c0.23,2.11,1,3.72,2.31,4.82c1.31,1.11,3.12,1.66,5.44,1.66c2.49,0,4.41-0.64,5.75-1.93
		l1.89,1.93c-1.88,1.8-4.42,2.7-7.64,2.7c-3.32,0-5.9-0.93-7.75-2.78c-1.85-1.85-2.78-4.44-2.78-7.75v-0.04
		c0-3.32,0.93-5.91,2.78-7.77C205.34,10.4,207.93,9.47,211.28,9.47z M219.11,18.73c-0.23-2.14-1.01-3.76-2.33-4.88
		c-1.32-1.12-3.16-1.68-5.5-1.68c-2.34,0-4.17,0.56-5.5,1.68c-1.33,1.12-2.09,2.74-2.3,4.88H219.11z"/>
	<path class="st0" d="M248.12,9.51c2.6,0,4.62,0.93,6.08,2.8c1.45,1.86,2.18,4.46,2.18,7.77v10.34h-2.66V20.08
		c0-0.72-0.06-1.54-0.19-2.45c-0.13-0.91-0.39-1.77-0.79-2.58c-0.4-0.81-0.96-1.49-1.7-2.03s-1.7-0.81-2.91-0.81
		c-1.21,0-2.18,0.27-2.91,0.81s-1.3,1.22-1.7,2.03c-0.4,0.81-0.66,1.67-0.79,2.58c-0.13,0.91-0.19,1.73-0.19,2.45v10.34h-2.7V20.08
		c0-0.72-0.06-1.54-0.19-2.45c-0.13-0.91-0.39-1.77-0.77-2.58c-0.39-0.81-0.95-1.49-1.68-2.03c-0.73-0.54-1.7-0.81-2.91-0.81
		c-1.21,0-2.18,0.27-2.91,0.81c-0.73,0.54-1.3,1.22-1.7,2.03c-0.4,0.81-0.66,1.67-0.79,2.58c-0.13,0.91-0.19,1.73-0.19,2.45v10.34
		h-2.7V20.08c0-3.32,0.73-5.91,2.18-7.77c1.45-1.86,3.49-2.8,6.11-2.8c1.59,0,2.97,0.35,4.13,1.06c1.16,0.71,2.08,1.73,2.78,3.07
		c0.69-1.34,1.63-2.36,2.8-3.07C245.14,9.86,246.52,9.51,248.12,9.51z"/>
	<path class="st0" d="M280.21,9.89L267.4,38.9h-2.93l4.17-9.41l-8.68-19.6h2.93l7.18,16.24l7.21-16.24H280.21z"/>
</g>
</svg>
