<?xml version="1.0" encoding="utf-8"?>
<!-- Generator: Adobe Illustrator 23.0.3, SVG Export Plug-In . SVG Version: 6.00 Build 0)  -->
<svg version="1.1" id="Calque_1" xmlns="http://www.w3.org/2000/svg" xmlns:xlink="http://www.w3.org/1999/xlink" x="0px" y="0px"
	 viewBox="0 0 33.5 56.4" style="enable-background:new 0 0 33.5 56.4;" xml:space="preserve">
<style type="text/css">
	.st0{opacity:0.1;fill-rule:evenodd;clip-rule:evenodd;fill:#FFFFFF;}
</style>
<title>silhouette_12-20</title>
<path class="st0" d="M3.7,28.4c-0.1-0.1-0.1-0.3-0.2-0.4c-0.1-0.4-0.1-0.9,0-1s0.3-0.2,0.3-0.4v-0.1c-0.2-0.1-0.6,0-0.8-0.1
	c-0.3-0.3-0.5-0.7-0.5-1.1c0-0.1,0.3-0.3,0.3-0.5S3.1,24.2,3,24s-0.5-0.3-0.7-0.4C2,23.2,1.8,22.7,2,22.1c0.1-0.3,0.3-0.5,0.5-0.8
	S2.9,20,3,19.7c0.1-0.2,0.1-0.4,0.1-0.6C3,18.9,2.9,19,2.7,18.8s-0.4-0.5-0.2-0.7c0.2,0.1,0.2,0.5,0.5,0.5c-0.1-0.5-0.3-1-0.6-1.4
	c-0.1-0.1-0.2-0.2-0.3-0.3C2,16.4,2,16,2,15.5c-0.1-0.4-0.2-0.8-0.2-1.2c-0.1-0.1-0.2-0.1-0.3-0.3c-0.3,0-0.6-0.2-0.8-0.4
	c-0.3-0.3-0.4-0.7-0.4-1.1c-0.2-0.6-0.2-1.1,0.1-1.4C0.1,10.5,0,9.8,0,9.1C0.2,9,0.3,9.1,0.5,9C0.6,8.8,0.8,8.6,1,8.4
	c0-0.3,0.2-0.5,0.4-0.7c0.4-0.2,0.9-0.4,1.4-0.5C2.9,7.1,3,7,3.1,6.9s0.3-0.1,0.4-0.1S3.8,6.5,4,6.4c0.4-0.3,0.8-0.6,1.2-0.9
	c0.2-0.1,0.3-0.1,0.5-0.2s0.2-0.2,0.4-0.2c0.3-0.2,0.7-0.2,1-0.4S7.7,4.4,8,4.2c0.1-0.1,0.2-0.1,0.4-0.1c0.4-0.3,0.8-0.6,1.1-0.9
	c1-0.7,2.1-1.4,3.3-2c0.2,0,0.4-0.2,0.6-0.3c0.5-0.2,1.1-0.1,1.6-0.3s1-0.4,1.5-0.6c0.3,0,0.6,0,0.8,0c0.5,0,0.9,0,1.4,0.2
	c0.7,0.2,1.3,0.5,2,0.8c0.3,0.1,0.6,0.3,1,0.4c0.3,0.2,0.6,0.3,0.9,0.5c0.2,0.2,0.4,0.5,0.6,0.7c1.1,1.1,2.1,2.3,2.9,3.6
	c0.3,0.6,0.6,1.2,1,1.7c0.1,0.1,0.3,0.3,0.4,0.4s0.1,0.3,0.2,0.4s0.1,0.3,0.2,0.4c0.1,0.4,0.3,0.7,0.6,1c0.1,0.5,0.4,1,0.9,1.3
	c0.4,0.8,0.8,1.5,1.3,2.3c0.1,0.2,0.3,0.5,0.5,0.7c0.6,1,1.2,2.1,1.6,3.2c0.1,0.1,0,0,0,0.1c0.5,0.6,0.7,2.1,0.8,3.2
	c0,0.1,0.1,0.3,0.1,0.4s0,0.4-0.1,0.6s0,0.5,0,0.6s-0.2,0.4-0.2,0.6s-0.1,0.3-0.2,0.5c-0.1,0.4-0.2,0.8-0.4,1.2
	c-0.1,0.1-0.4,0.2-0.5,0.3c-0.2,0.1-0.1,0.2-0.2,0.2s-0.1,0-0.1,0s0,0,0,0.1s-0.2,0.1-0.3,0.1s-0.4,0.3-0.6,0.4
	C31,26,30.9,26,30.8,26.1c0,0,0.1,0.1,0,0.1s-0.1,0-0.2,0.1c-0.3,0.2-0.7,0.5-1,0.8c-0.3,0.1-0.5,0.2-0.7,0.4
	c-0.2,0.2-0.4,0.4-0.6,0.6s-0.1,0.3-0.3,0.3c0,0.3-0.3,0.5-0.4,0.8c0,0.2,0,0.5,0,0.7c-0.1,0.5-0.3,1-0.4,1.5
	c-1,0.2-0.9,1.5-1.7,1.9c0,0.4-0.1,0.8-0.2,1.3c-0.3,0-0.6,0-0.9,0c-0.1-0.1-0.1-0.3-0.1-0.4c-0.1,0.1,0,0.1-0.1,0.2s0,0.2-0.2,0.2
	s-0.4,0-0.6-0.1c-0.1-0.3,0.1-0.5,0.1-0.9c0-0.5-0.1-1.1-0.3-1.6c-0.1,0-0.8,0.3-0.9,0.4c-0.1,0.5-0.2,0.9-0.2,1.4
	c0.6,1.5,1.2,2.9,2,4.3c0.1,0.1,0.3,0.3,0.4,0.5s0.2,0.6,0.4,0.8c0.2,0.2,0.3,0.5,0.4,0.8c-0.2,0.2-0.5,0.2-0.7,0.3
	c-1.2,0.3-2.3,0.9-3.3,1.7c-0.4,0.4-0.8,0.7-1.2,1.1c-1.2,1.1-2.3,2.3-3.3,3.5c-0.7,0.8-1.5,1.6-2.3,2.4c-0.8,0.8-1.6,1.5-2.5,2.2
	s-1.8,1.4-2.8,2c-2.1,1.2-4.3,2.4-6.5,3.4C2,54,1.3,51.6,0.9,49.2c-0.2-0.9-0.2-1.7-0.1-2.6c0.4-1.1,0.9-2.1,1.5-3l0.5-0.7
	C3,42.6,3.1,42.3,3.1,42c0.3-0.2,0.6-0.5,0.9-0.7C4,41.2,4,41,4,41c0.2-0.2,0.3-0.4,0.4-0.7C4.7,40,5,39.8,5.2,39.5
	c0.6-0.4,1-0.8,1.4-1.4c0-0.1,0-0.3,0-0.4c0.2-0.3,0.7-0.5,0.8-0.8c-0.3,0.1-0.6-0.1-0.6-0.5c-0.2-0.2-0.3-0.5-0.5-0.7
	S6,35.2,5.9,34.9c0-0.4,0.4-0.5,0.7-0.7c0.1-0.2,0.3-0.4,0.1-0.7c0.3-0.3,0.6-0.6,1-0.8C8.2,32.4,8.6,32,9,31.5
	c0.1-0.1,0-0.1,0.1-0.2s0.4-0.3,0.6-0.5c-1,0.2-1.5,0.5-2.5,0.6c-0.4,0-1,0.2-1.3,0c-0.4-0.2-0.7-0.6-0.9-1
	c-0.2-0.4-0.2-1.2-0.5-1.5S3.8,28.5,3.7,28.4z M0.4,9.9l0.2,0.8c0.1-0.1,0.4-0.3,0.5-0.4c-0.3,0.1-0.2-0.4-0.3-0.4S0.6,9.9,0.4,9.9z
	 M1.1,10.2c-0.1,0-0.1-0.1-0.2,0S1.1,10.3,1.1,10.2z M0.4,12.2C0.5,11.7,0.9,11.5,1,11C0.4,11,0.1,11.7,0.4,12.2L0.4,12.2z M1,11.8
	c-0.1,0.1,0,0.1-0.1,0.2c-0.3,0.5-0.3,1.1,0,1.6c0.2,0,0.3,0.2,0.6,0.2c-0.1-0.7-0.1-1.5,0-2.2C1.3,11.6,1.2,11.7,1,11.8L1,11.8z
	 M1.8,11.7c-0.2,0.5-0.2,1.1,0,1.6c0-0.6,0.1-1.1,0.2-1.7L1.8,11.7z M1.8,14.1C1.8,14.1,1.7,14,1.8,14.1C1.7,14.1,1.8,14.2,1.8,14.1
	z"/>
</svg>
