<svg id="Calque_1" data-name="Calque 1" xmlns="http://www.w3.org/2000/svg" viewBox="0 0 33.47 56.41"><defs><style>.cls-1{fill-rule:evenodd;}</style></defs><title>silhouette_12-20</title><path class="cls-1" d="M3.92,28.5a2,2,0,0,1-.16-.39c-.09-.37-.06-.94.05-1s.35-.24.3-.36l0-.1c-.18-.08-.61,0-.8-.09a1.47,1.47,0,0,1-.49-1.15c0-.15.25-.29.35-.47s.3-.63.22-.84-.53-.26-.69-.39a1.34,1.34,0,0,1-.49-1.44c.09-.27.33-.5.45-.78s.51-1.35.6-1.62a1.27,1.27,0,0,0,.06-.65c-.09-.18-.17-.06-.35-.24s-.36-.48-.2-.69c.2.1.23.46.5.45a5.11,5.11,0,0,0-.59-1.41c-.08-.13-.23-.21-.29-.32a6.56,6.56,0,0,1-.18-1.34C2.12,15.29,2,14.9,2,14.43c-.06-.14-.23-.09-.25-.29a1,1,0,0,1-.8-.41,1.9,1.9,0,0,1-.43-1.07C.36,12.06.33,11.6.6,11.3A4.45,4.45,0,0,1,.29,9.25c.21-.08.32,0,.52-.05a4,4,0,0,1,.49-.62,1.29,1.29,0,0,1,.35-.71A13.39,13.39,0,0,1,3,7.34c.12-.07.22-.2.33-.26S3.6,7,3.73,7s.3-.31.52-.48a7.1,7.1,0,0,1,1.2-.86c.17-.07.33-.11.49-.18s.24-.17.36-.23c.33-.16.7-.22,1-.36s.62-.36.94-.51c.11-.06.24-.06.36-.12a10,10,0,0,0,1.13-.87A23.62,23.62,0,0,1,13,1.44a5.37,5.37,0,0,1,.65-.37c.53-.19,1.13-.15,1.62-.32A12,12,0,0,1,16.71.16a4.78,4.78,0,0,1,.84,0,5.27,5.27,0,0,1,1.38.16,18.81,18.81,0,0,1,2,.79c.31.14.64.28.95.44a7.38,7.38,0,0,1,.9.53c.22.17.4.45.62.66A17.42,17.42,0,0,1,26.26,6.3c.33.55.61,1.15,1,1.67.1.15.29.28.39.44s.11.29.17.42.13.25.19.37a2.9,2.9,0,0,0,.6,1,2.46,2.46,0,0,0,.87,1.28c.38.81.81,1.52,1.27,2.34.13.23.29.47.45.7a21.48,21.48,0,0,1,1.61,3.18c.1.1,0,0,0,.08.54.65.68,2.09.85,3.21,0,.15.09.3.1.44s-.05.36-.07.58,0,.47,0,.61-.15.38-.22.58-.12.33-.17.46a3.92,3.92,0,0,1-.39,1.16c-.11.11-.38.21-.55.34s-.13.18-.19.22-.06,0-.08,0,0,0,0,.07-.19.08-.28.14-.37.29-.57.42a3.14,3.14,0,0,0-.31.18s.07.06,0,.07a.41.41,0,0,0-.19.08,12.38,12.38,0,0,0-1,.78,1.56,1.56,0,0,0-.67.44c-.2.19-.42.37-.63.58s-.14.28-.3.25c0,.3-.28.51-.36.83a4.08,4.08,0,0,0,0,.7c-.06.55-.31,1-.35,1.46-1,.19-.88,1.55-1.66,1.92a4.15,4.15,0,0,1-.19,1.25,2.84,2.84,0,0,1-.86-.05.62.62,0,0,1-.1-.4c-.12.1,0,.09-.14.15s0,.19-.17.21a2.68,2.68,0,0,1-.64-.06c-.07-.25.07-.54.07-.86a8.61,8.61,0,0,0-.28-1.62c-.15-.05-.77.33-.89.42a4.53,4.53,0,0,0-.2,1.39A29.47,29.47,0,0,0,24.38,38a5.85,5.85,0,0,1,.4.47c.15.24.24.57.37.82a3.45,3.45,0,0,1,.4.79c-.19.18-.45.17-.74.25A10,10,0,0,0,21.48,42a11.73,11.73,0,0,0-1.2,1.14A39.44,39.44,0,0,0,17,46.64,21,21,0,0,1,14.66,49a28.13,28.13,0,0,1-2.47,2.22c-.92.67-1.81,1.39-2.79,2a69,69,0,0,1-6.51,3.36c-.63-2.44-1.32-4.86-1.78-7.27A8.74,8.74,0,0,1,1,46.71a11.72,11.72,0,0,1,1.54-3L3,43a1.45,1.45,0,0,0,.39-.87,4.92,4.92,0,0,0,.88-.74c0-.09,0-.26,0-.34a4.71,4.71,0,0,0,.45-.65c.2-.29.53-.46.68-.79a5.56,5.56,0,0,0,1.44-1.37c0-.13,0-.25,0-.37.21-.3.66-.46.81-.79C7.31,37.2,7,37,7,36.57c-.15-.18-.31-.45-.49-.72A1.75,1.75,0,0,1,6.13,35c0-.38.4-.51.73-.74.06-.22.25-.41.09-.69a3.41,3.41,0,0,1,1-.76A9.86,9.86,0,0,0,9.3,31.65c.12-.08,0-.12.1-.2s.39-.31.59-.46c-1,.18-1.49.45-2.51.57-.44.05-1,.16-1.27,0a2.15,2.15,0,0,1-.86-.95c-.15-.38-.22-1.21-.51-1.54S4,28.63,3.92,28.5ZM.67,10.08l.19.8c.15-.15.35-.28.49-.44-.28.14-.18-.35-.34-.41S.8,10,.67,10.08Zm.69.26c-.08,0-.08-.05-.17,0S1.39,10.42,1.36,10.34Zm-.68,2c.06-.45.44-.73.53-1.18C.66,11.1.37,11.87.68,12.33Zm.61-.39c-.1.07-.05.1-.13.21a1.43,1.43,0,0,0,0,1.59c.2,0,.34.2.57.18a16.44,16.44,0,0,1,0-2.22A1.77,1.77,0,0,0,1.29,11.94ZM2,11.8A2.92,2.92,0,0,0,2,13.44a6.37,6.37,0,0,1,.23-1.68ZM2,14.25s-.05-.12-.05-.05S2,14.32,2,14.25Z" transform="translate(-0.24 -0.14)"/></svg>