<?xml version="1.0" encoding="utf-8"?>
<!-- Generator: Adobe Illustrator 23.0.3, SVG Export Plug-In . SVG Version: 6.00 Build 0)  -->
<svg version="1.1" id="Calque_1" xmlns="http://www.w3.org/2000/svg" xmlns:xlink="http://www.w3.org/1999/xlink" x="0px" y="0px"
	 viewBox="0 0 160 160" style="enable-background:new 0 0 160 160;" xml:space="preserve">
<style type="text/css">
	.st0{fill:#006FBA;}
</style>
<g id="Temps_d_x27_attente">
</g>
<g id="Calque_5">
</g>
<g id="Ardoise">
</g>
<g id="Logos">
	<g>
		<path class="st0" d="M160,80.4C160,36,122.8,0,80.2,0C36,0,0,36,0,80.4C0,124.2,36,160,80.2,160C124.4,160,160,124.6,160,80.4z
			 M149,80.4c0,37.6-31,68.6-68.8,68.6c-38,0-69.2-30.8-69.2-68.6c0-38.2,31.2-69.6,69.2-69.6C118,10.8,149,42.4,149,80.4z
			 M137.8,91c0-8.2-4.6-13-10.4-16.2l-4.4-2.4c-2.6-1.4-4.8-3.6-4.8-6.4c0-3.2,2.6-5.4,6.4-5.4c2.6,0,5,1,6.8,1.8
			c2.8,1.4,4.6-0.4,5.4-3.4c1-3.4-0.4-4.6-2.8-5.8c-2.4-1.2-5.8-2-9.2-2c-9.4,0-17.2,6.2-17.2,16.2c0,7.8,4,12.2,10.4,15.8l4.6,2.6
			c2.8,1.6,4.6,3.8,4.6,6.8c0,3.8-3.6,5.6-7.2,5.6c-2.8,0-6.2-1.2-8-2c-3-1.4-4.6,0.4-5.6,3.6c-1,3.4,0.6,4.8,3.2,6
			c2.4,1.2,6.6,2.2,10.4,2.2C129.8,108,137.8,101.4,137.8,91z M102.8,89V55.8c0-2.8-2.8-4.2-5.4-4.2c-2.8,0-5.4,1.4-5.4,4.2v31.8
			c0,6.4-2,10.6-7.2,10.6c-5,0-7.4-4-7.4-10.6V55.8c0-2.8-3-4.2-5.6-4.2c-3,0-5.6,1.4-5.6,4.2v33c0,13.2,6.6,19.2,18.6,19.2
			C95.6,108,102.8,101.8,102.8,89z M61,91.4c0-9.2-6.4-12.6-9.8-13.2V78c4-2,8.8-5.8,8.8-12.6c0-9.2-8-13.6-15.8-13.6h-15
			c-2.8,0-4.4,2.2-4.4,4.6v46.8c0,2.8,2.8,4.2,5.4,4.2h14.2C53,107.4,61,102.8,61,91.4z M48.8,68c0,5.2-4.4,7-9,7h-4.2V61h4.2
			C44.6,61,48.8,62.6,48.8,68z M50.4,90.2c0,5.4-3,8-9.4,8h-4.8V82.6H41C45,82.6,50.4,84,50.4,90.2z"/>
	</g>
</g>
</svg>
