<?xml version="1.0" encoding="utf-8"?>
<!-- Generator: Adobe Illustrator 23.0.3, SVG Export Plug-In . SVG Version: 6.00 Build 0)  -->
<svg version="1.1" id="Capa_1" xmlns="http://www.w3.org/2000/svg" xmlns:xlink="http://www.w3.org/1999/xlink" x="0px" y="0px"
	 viewBox="0 0 456 456" style="enable-background:new 0 0 456 456;" xml:space="preserve">
<style type="text/css">
	.st0{fill:#006FBA;}
</style>
<g>
	<g>
		<g>
			<g>
				<path class="st0" d="M228,0C102.1,0,0,102.1,0,228c0,125.9,102.1,228,228,228c125.9,0,228-102.1,228-228
					C456,102.1,353.9,0,228,0z M228,425.6c-109,0-197.6-88.6-197.6-197.6S119,30.4,228,30.4S425.6,119,425.6,228
					S336.9,425.6,228,425.6z"/>
				<path class="st0" d="M312.1,122.4l-83.5,83.6l-75-83.6c-5.9-5.9-15.6-5.9-21.5,0c-5.9,5.9-5.9,15.6,0,21.5l75,83.6l-84.7,84.7
					c-5.9,5.9-5.9,15.6,0,21.5c5.9,5.9,15.6,5.9,21.5,0l83.6-83.5l75,83.5c5.9,5.9,15.6,5.9,21.5,0c5.9-5.9,5.9-15.6,0-21.5
					l-75-83.5l84.7-84.8c5.9-5.9,5.9-15.6,0-21.5C327.7,116.4,318.1,116.4,312.1,122.4z"/>
			</g>
		</g>
	</g>
</g>
</svg>
