<?xml version="1.0" encoding="utf-8"?>
<!-- Generator: Adobe Illustrator 23.0.3, SVG Export Plug-In . SVG Version: 6.00 Build 0)  -->
<svg version="1.1" id="Calque_1" xmlns="http://www.w3.org/2000/svg" xmlns:xlink="http://www.w3.org/1999/xlink" x="0px" y="0px"
	 viewBox="0 0 100 100" style="enable-background:new 0 0 100 100;" xml:space="preserve">
<style type="text/css">
	.st0{fill:#006FBA;}
</style>
<g>
	<g id="Temps_d_x27_attente">
	</g>
	<g id="Calque_5">
	</g>
	<g id="Ardoise">
	</g>
	<g id="Logos">
		<g>
			<path class="st0" d="M99.5,50.3c0-27.5-23-49.8-49.4-49.8C22.8,0.5,0.5,22.8,0.5,50.3c0,27.2,22.3,49.3,49.6,49.3
				S99.5,77.6,99.5,50.3z M92.7,50.3c0,23.3-19.2,42.7-42.6,42.7c-23.5,0-42.8-19.2-42.8-42.7c0-23.6,19.3-43.2,42.8-43.2
				C73.5,7.1,92.7,26.7,92.7,50.3z M74.6,72.2V29c0-2.5-1.4-5.1-5.4-5.1c-3.1,0-4.3,1.4-5.7,4.1L50.1,55.8H50L36.5,28
				c-1.4-2.7-2.6-4.1-5.7-4.1c-4.1,0-5.4,2.6-5.4,5.1v43.2c0,2.4,1.9,3.7,4.1,3.7c2,0,4.2-1.4,4.2-3.7V40h0.1L46,65
				c0.9,1.7,2,2.7,4,2.7c2,0,3.1-1,4-2.7l12.3-25h0.1v32.2c0,2.4,2.2,3.7,4.2,3.7C72.8,75.9,74.6,74.5,74.6,72.2z"/>
		</g>
	</g>
</g>
</svg>
