<?xml version="1.0" encoding="utf-8"?>
<!-- Generator: Adobe Illustrator 23.0.3, SVG Export Plug-In . SVG Version: 6.00 Build 0)  -->
<svg version="1.1" id="Capa_1" xmlns="http://www.w3.org/2000/svg" xmlns:xlink="http://www.w3.org/1999/xlink" x="0px" y="0px"
	 viewBox="0 0 31.2 31.2" style="enable-background:new 0 0 31.2 31.2;" xml:space="preserve">
<g>
	<path d="M0,3.1v25c0,1.7,1.4,3.1,3.1,3.1h25c1.7,0,3.1-1.4,3.1-3.1v-25c0-1.7-1.4-3.1-3.1-3.1h-25C1.4,0,0,1.4,0,3.1z M12.5,15.6
		c0,0.2,0,0.4-0.1,0.5l7.5,4.6c0.5-0.4,1.2-0.6,1.9-0.6c1.8,0,3.3,1.5,3.3,3.3s-1.5,3.3-3.3,3.3c-1.8,0-3.3-1.5-3.3-3.3
		c0-0.2,0-0.4,0.1-0.5l-7.5-4.6c-0.5,0.4-1.2,0.6-1.9,0.6c-1.8,0-3.3-1.5-3.3-3.3c0-1.8,1.5-3.3,3.3-3.3c0.7,0,1.4,0.2,1.9,0.6
		l7.5-4.6c0-0.2-0.1-0.3-0.1-0.5c0-1.8,1.5-3.3,3.3-3.3c1.8,0,3.3,1.5,3.3,3.3s-1.5,3.3-3.3,3.3c-0.7,0-1.4-0.2-1.9-0.6l-7.5,4.6
		C12.5,15.3,12.5,15.4,12.5,15.6z"/>
</g>
</svg>
